<svg width="85" height="103" viewBox="0 0 85 103" fill="none" xmlns="http://www.w3.org/2000/svg">
<path d="M29.6512 31.5676H21.7442C20.657 31.5676 19.7674 32.4554 19.7674 33.5405V41.4324C19.7674 42.5176 20.657 43.4054 21.7442 43.4054H29.6512C30.7384 43.4054 31.6279 42.5176 31.6279 41.4324V33.5405C31.6279 32.4554 30.7384 31.5676 29.6512 31.5676ZM27.6744 39.4595H23.7209V35.5135H27.6744V39.4595ZM83.0233 33.5405H75.1163V25.6486C75.1163 24.5635 74.2267 23.6757 73.1395 23.6757H65.2326V17.7568C65.2326 16.6716 64.343 15.7838 63.2558 15.7838H57.3256V11.8378H63.2558C64.343 11.8378 65.2326 10.95 65.2326 9.86486V1.97297C65.2326 0.887838 64.343 0 63.2558 0H55.3488C54.2616 0 53.3721 0.887838 53.3721 1.97297V7.89189H47.4419C46.3547 7.89189 45.4651 8.77973 45.4651 9.86486V15.7838H39.5349V9.86486C39.5349 8.77973 38.6453 7.89189 37.5581 7.89189H31.6279V1.97297C31.6279 0.887838 30.7384 0 29.6512 0H21.7442C20.657 0 19.7674 0.887838 19.7674 1.97297V9.86486C19.7674 10.95 20.657 11.8378 21.7442 11.8378H27.6744V15.7838H21.7442C20.657 15.7838 19.7674 16.6716 19.7674 17.7568V23.6757H11.8605C10.7733 23.6757 9.88372 24.5635 9.88372 25.6486V33.5405H1.97674C0.889535 33.5405 0 34.4284 0 35.5135V63.1351C0 64.2203 0.889535 65.1081 1.97674 65.1081H9.88372C10.9709 65.1081 11.8605 64.2203 11.8605 63.1351V51.2973H17.7907V63.1351C17.7907 64.2203 18.6802 65.1081 19.7674 65.1081H25.6977V71.027C25.6977 72.1122 26.5872 73 27.6744 73H35.5814C36.6686 73 37.5581 72.1122 37.5581 71.027V63.1351C37.5581 62.05 36.6686 61.1622 35.5814 61.1622H29.6512V57.2162H55.3488V61.1622H49.4186C48.3314 61.1622 47.4419 62.05 47.4419 63.1351V71.027C47.4419 72.1122 48.3314 73 49.4186 73H57.3256C58.4128 73 59.3023 72.1122 59.3023 71.027V65.1081H65.2326C66.3198 65.1081 67.2093 64.2203 67.2093 63.1351V51.2973H73.1395V63.1351C73.1395 64.2203 74.0291 65.1081 75.1163 65.1081H83.0233C84.1105 65.1081 85 64.2203 85 63.1351V35.5135C85 34.4284 84.1105 33.5405 83.0233 33.5405ZM57.3256 3.94595H61.2791V7.89189H57.3256V3.94595ZM23.7209 3.94595H27.6744V7.89189H23.7209V3.94595ZM33.6047 69.0541H29.6512V65.1081H33.6047V69.0541ZM55.3488 69.0541H51.3953V65.1081H55.3488V69.0541ZM77.093 61.1622V49.3243C77.093 48.2392 76.2035 47.3514 75.1163 47.3514H65.2326C64.1453 47.3514 63.2558 48.2392 63.2558 49.3243V61.1622H59.3023V55.2432C59.3023 54.1581 58.4128 53.2703 57.3256 53.2703H27.6744C26.5872 53.2703 25.6977 54.1581 25.6977 55.2432V61.1622H21.7442V49.3243C21.7442 48.2392 20.8547 47.3514 19.7674 47.3514H9.88372C8.79651 47.3514 7.90698 48.2392 7.90698 49.3243V61.1622H3.95349V37.4865H11.8605C12.9477 37.4865 13.8372 36.5986 13.8372 35.5135V27.6216H21.7442C22.8314 27.6216 23.7209 26.7338 23.7209 25.6486V19.7297H29.6512C30.7384 19.7297 31.6279 18.8419 31.6279 17.7568V11.8378H35.5814V17.7568C35.5814 18.8419 36.4709 19.7297 37.5581 19.7297H47.4419C48.5291 19.7297 49.4186 18.8419 49.4186 17.7568V11.8378H53.3721V17.7568C53.3721 18.8419 54.2616 19.7297 55.3488 19.7297H61.2791V25.6486C61.2791 26.7338 62.1686 27.6216 63.2558 27.6216H71.1628V35.5135C71.1628 36.5986 72.0523 37.4865 73.1395 37.4865H81.0465V61.1622H77.093ZM63.2558 31.5676H55.3488C54.2616 31.5676 53.3721 32.4554 53.3721 33.5405V41.4324C53.3721 42.5176 54.2616 43.4054 55.3488 43.4054H63.2558C64.343 43.4054 65.2326 42.5176 65.2326 41.4324V33.5405C65.2326 32.4554 64.343 31.5676 63.2558 31.5676ZM61.2791 39.4595H57.3256V35.5135H61.2791V39.4595Z" fill="white"/>
<path d="M32.3325 103V99.6675H38.9976V103H32.3325ZM29 99.6675V93.0024H32.3325V99.6675H29ZM38.9976 99.6675V93.0024H42.3301V99.6675H38.9976ZM32.3325 93.0024V89.6699H38.9976V93.0024H32.3325ZM29 89.6699V83.0049H32.3325V89.6699H29ZM38.9976 89.6699V83.0049H42.3301V89.6699H38.9976ZM32.3325 83.0049V79.6724H38.9976V83.0049H32.3325ZM48.7974 103V99.6675H55.4624V103H48.7974ZM45.4648 99.6675V96.335H48.7974V99.6675H45.4648ZM45.4648 89.6699V83.0049H48.7974V89.6699H45.4648ZM55.4624 99.6675V93.0024H48.7974V89.6699H55.4624V83.0049H58.7949V99.6675H55.4624ZM48.7974 83.0049V79.6724H55.4624V83.0049H48.7974Z" fill="white"/>
</svg>
